{"glyphs":{"0":{"ha":753,"x_min":110,"x_max":851,"o":"m 132 488 q 201 683 154 592 q 309 842 247 774 q 442 949 371 910 q 586 989 514 989 q 713 949 658 989 q 801 842 768 910 q 843 683 835 774 q 829 488 851 592 q 760 292 807 383 q 651 133 713 201 q 517 26 589 65 q 374 -14 446 -14 q 247 26 301 -14 q 158 133 192 65 q 117 292 125 201 q 132 488 110 383 m 271 488 q 248 303 250 389 q 260 152 246 217 q 306 51 275 88 q 379 14 336 14 q 469 51 424 14 q 557 152 515 88 q 634 303 599 217 q 690 488 669 389 q 713 672 711 586 q 700 823 715 758 q 655 924 685 888 q 581 961 625 961 q 491 924 538 961 q 403 823 444 888 q 326 672 361 758 q 271 488 292 586 z "},"1":{"ha":372,"x_min":14,"x_max":458,"o":"m 292 206 q 277 126 282 160 q 278 71 272 93 q 303 38 283 49 q 364 28 322 28 l 358 0 l 14 0 l 19 28 q 85 38 61 28 q 125 71 110 49 q 149 126 140 93 q 167 206 157 160 l 293 799 q 299 840 299 825 q 291 863 300 856 q 260 872 282 869 q 199 874 238 874 l 204 901 l 458 986 l 292 206 z "},"2":{"ha":643,"x_min":24,"x_max":786,"o":"m 192 111 q 517 137 411 111 q 635 221 622 163 l 663 221 l 597 0 l 24 0 l 75 111 q 113 177 92 146 q 169 243 135 208 q 253 320 203 278 q 379 421 304 363 q 483 508 439 467 q 557 588 526 549 q 606 665 588 626 q 633 744 625 703 q 621 898 654 840 q 513 956 588 956 q 447 944 479 956 q 385 914 414 933 q 332 869 356 894 q 292 815 308 843 l 278 842 q 396 950 333 915 q 549 985 458 985 q 657 970 610 985 q 734 926 704 956 q 775 855 764 897 q 775 758 786 813 q 740 669 765 713 q 674 581 715 625 q 571 490 632 536 q 428 392 510 443 q 225 244 299 311 q 117 111 151 178 l 192 111 z "},"3":{"ha":660,"x_min":50,"x_max":749,"o":"m 282 -14 q 128 15 189 -14 q 56 88 68 44 q 53 122 50 104 q 67 155 57 140 q 92 179 76 169 q 125 189 107 189 q 167 169 150 189 q 182 110 183 149 q 211 35 179 57 q 292 14 243 14 q 456 78 388 14 q 549 260 524 143 q 530 453 575 385 q 381 522 485 522 l 386 551 q 523 608 465 551 q 601 763 581 665 q 590 906 621 854 q 489 957 560 957 q 397 937 444 957 q 307 878 350 917 l 299 899 q 401 964 349 943 q 518 985 453 985 q 625 968 579 985 q 699 921 671 951 q 738 847 728 890 q 738 753 749 804 q 663 618 721 674 q 514 539 606 563 q 667 448 622 515 q 692 279 713 381 q 638 155 676 210 q 544 63 599 100 q 422 6 489 25 q 282 -14 354 -14 z "},"4":{"ha":693,"x_min":76,"x_max":776,"o":"m 340 28 q 398 35 375 28 q 437 60 421 42 q 465 115 453 79 q 488 206 476 150 l 507 296 l 76 296 l 86 338 l 693 972 l 776 972 l 139 338 l 517 338 l 592 694 l 726 739 l 642 338 l 731 338 l 721 296 l 632 296 l 613 206 q 598 115 601 150 q 602 60 594 79 q 630 35 610 42 q 685 28 650 28 l 679 0 l 335 0 l 340 28 z "},"5":{"ha":674,"x_min":50,"x_max":810,"o":"m 279 -14 q 128 15 188 -14 q 56 88 68 44 q 53 122 50 104 q 67 155 57 140 q 92 179 76 169 q 125 189 107 189 q 167 169 150 189 q 182 110 183 149 q 212 37 181 58 q 290 15 243 15 q 452 81 381 15 q 551 276 524 146 q 540 476 579 401 q 404 561 500 551 q 308 549 351 567 q 250 500 265 532 l 208 500 l 351 972 l 810 972 l 758 861 l 360 861 l 269 567 q 431 597 335 601 q 563 569 506 593 q 658 506 621 546 q 708 411 694 465 q 708 292 722 357 q 651 165 693 221 q 551 69 610 108 q 423 8 493 29 q 279 -14 353 -14 z "},"6":{"ha":757,"x_min":100,"x_max":807,"o":"m 763 958 q 620 913 683 943 q 504 835 557 883 q 407 717 451 786 q 322 554 363 649 q 422 599 369 583 q 526 614 474 614 q 651 590 596 614 q 743 522 707 565 q 793 422 779 479 q 793 300 807 365 q 742 174 779 232 q 650 75 704 117 q 529 10 596 33 q 388 -14 463 -14 q 231 28 296 -14 q 133 140 165 69 q 101 306 100 211 q 144 507 103 400 q 247 689 182 606 q 393 835 311 772 q 571 938 475 899 q 768 986 667 976 l 763 958 m 268 300 q 267 183 260 236 q 294 93 275 131 q 346 35 314 56 q 419 14 378 14 q 498 35 461 14 q 564 93 535 56 q 613 183 593 131 q 640 300 632 236 q 641 417 649 364 q 614 507 633 469 q 563 565 594 544 q 489 586 531 586 q 410 565 447 586 q 344 507 374 544 q 296 417 315 469 q 268 300 276 364 z "},"7":{"ha":628,"x_min":176,"x_max":825,"o":"m 825 972 l 764 874 q 661 700 711 782 q 565 539 611 618 q 438 274 494 413 q 344 0 381 135 l 192 0 q 472 540 294 304 q 593 699 531 618 q 722 874 656 779 l 647 874 q 440 869 522 874 q 307 851 357 864 q 234 818 257 839 q 204 764 211 797 l 176 764 l 239 972 l 825 972 z "},"8":{"ha":675,"x_min":65,"x_max":771,"o":"m 379 518 q 258 642 289 583 q 242 764 228 701 q 280 851 251 811 q 350 922 308 892 q 442 969 392 951 q 549 986 493 986 q 646 969 603 986 q 718 924 689 953 q 759 857 747 896 q 761 774 771 818 q 695 663 747 711 q 547 569 643 614 q 680 394 644 474 q 696 228 715 315 q 653 132 685 176 q 574 55 621 88 q 466 4 526 22 q 336 -14 406 -14 q 216 3 269 -14 q 128 53 163 21 q 79 131 93 86 q 76 231 65 176 q 107 313 86 275 q 163 384 128 350 q 252 451 199 418 q 379 518 306 483 m 529 958 q 478 948 503 958 q 433 919 453 938 q 398 878 413 901 q 378 828 383 854 q 378 774 372 800 q 402 719 383 747 q 451 658 421 690 q 526 586 482 625 q 621 772 599 669 q 615 908 639 857 q 529 958 592 958 m 400 501 q 288 367 333 440 q 226 219 242 293 q 239 71 207 128 q 342 14 271 14 q 407 28 375 14 q 465 68 439 43 q 511 127 492 93 q 539 201 531 161 q 519 350 554 281 q 400 501 483 419 z "},"9":{"ha":758,"x_min":157,"x_max":864,"o":"m 201 14 q 344 59 281 29 q 459 137 407 89 q 556 254 511 185 q 642 418 600 324 q 438 358 542 358 q 313 383 368 358 q 221 450 257 407 q 171 550 185 493 q 171 672 157 607 q 224 801 186 743 q 315 899 261 858 q 437 963 369 940 q 576 986 504 986 q 733 945 668 986 q 831 833 797 904 q 863 667 864 763 q 819 465 861 572 q 718 285 782 368 q 572 138 654 201 q 394 35 490 75 q 196 -14 299 -4 l 201 14 m 696 672 q 697 791 704 738 q 669 882 689 844 q 618 940 650 919 q 544 961 586 961 q 466 940 503 961 q 400 882 429 919 q 351 791 371 844 q 324 672 332 738 q 323 555 315 608 q 350 463 331 501 q 401 404 369 425 q 475 383 433 383 q 553 404 517 383 q 619 463 590 425 q 667 553 647 500 q 696 672 688 607 z "},"\u0000":{"ha":0,"x_min":0,"x_max":0,"o":""},"\r":{"ha":347,"x_min":0,"x_max":0,"o":""}," ":{"ha":361,"x_min":0,"x_max":0,"o":""},"!":{"ha":250,"x_min":61,"x_max":392,"o":"m 383 904 q 330 717 356 801 q 281 553 304 633 q 231 378 254 467 q 186 181 207 290 l 144 181 q 183 378 169 290 q 208 553 197 467 q 228 717 218 633 q 253 904 238 801 q 281 952 257 932 q 335 972 306 972 q 377 952 363 972 q 383 904 392 932 m 68 56 q 97 106 75 88 q 151 125 119 125 q 199 106 183 125 q 207 56 214 88 q 177 5 200 24 q 122 -14 154 -14 q 76 5 90 -14 q 68 56 61 24 z "},"&":{"ha":1168,"x_min":110,"x_max":1128,"o":"m 681 472 q 695 513 686 496 q 722 542 704 531 q 767 560 739 554 q 836 568 794 567 q 1049 643 994 575 q 1078 701 1072 671 q 1078 757 1085 732 q 1051 799 1071 782 q 1001 815 1032 815 q 964 806 981 815 q 928 772 947 796 q 899 742 911 750 q 875 733 888 733 q 856 743 861 733 q 853 765 850 753 q 869 795 856 781 q 902 821 882 810 q 946 839 922 832 q 994 846 969 846 q 1090 806 1057 846 q 1111 707 1124 767 q 1039 599 1097 644 q 890 542 981 554 q 983 463 957 514 q 993 331 1010 411 q 896 149 971 228 q 966 83 936 101 q 1028 65 996 65 q 1078 83 1063 65 q 1100 135 1093 100 l 1128 135 q 944 -14 1096 -14 q 854 3 896 -14 q 774 57 813 19 q 632 4 708 22 q 468 -14 556 -14 q 309 6 379 -14 q 193 60 239 25 q 128 144 147 94 q 122 251 110 193 q 148 325 131 293 q 196 386 165 357 q 275 444 226 415 q 394 507 324 472 q 349 565 372 535 q 308 628 325 594 q 285 698 292 661 q 286 778 278 735 q 328 872 297 831 q 402 941 360 913 q 494 985 444 969 q 593 1000 544 1000 q 679 987 636 1000 q 754 948 722 974 q 802 884 786 922 q 807 797 818 846 q 772 719 799 756 q 709 653 744 683 q 633 598 674 622 q 557 557 593 574 l 831 226 q 871 346 857 281 q 862 486 889 431 q 774 542 835 542 q 726 527 746 542 q 697 472 706 513 l 681 472 m 574 972 q 521 961 546 972 q 476 931 496 950 q 442 888 456 913 q 422 836 428 863 q 424 763 414 799 q 454 692 435 726 q 497 628 474 658 q 540 575 521 599 q 623 674 592 617 q 667 789 654 731 q 674 853 674 821 q 664 912 674 885 q 633 956 654 939 q 574 972 611 972 m 418 483 q 326 378 363 435 q 278 264 290 321 q 310 89 254 150 q 496 28 365 28 q 733 103 638 28 l 418 483 z "},"*":{"ha":435,"x_min":231,"x_max":567,"o":"m 435 1018 q 451 997 458 1018 l 408 865 l 532 942 q 549 946 542 949 q 560 935 557 943 q 546 906 567 915 l 415 851 l 522 797 q 525 771 540 789 q 496 764 510 751 l 403 838 l 386 708 q 363 688 385 688 q 347 708 342 688 l 386 836 l 264 764 q 238 771 244 751 q 251 797 231 789 l 381 851 l 275 906 q 272 935 256 914 q 288 946 279 943 q 303 942 296 949 l 393 865 l 410 997 q 435 1018 413 1018 z "},"+":{"ha":442,"x_min":150,"x_max":490,"o":"m 160 489 l 304 489 l 335 633 l 376 633 l 346 489 l 490 489 l 481 447 l 336 447 l 306 303 l 264 303 l 294 447 l 150 447 l 160 489 z "},",":{"ha":208,"x_min":29,"x_max":204,"o":"m 136 -10 q 103 -14 118 -14 q 51 7 69 -14 q 40 57 33 28 q 70 105 46 85 q 125 125 94 125 q 188 43 204 125 q 133 -53 174 -17 q 29 -90 92 -90 l 32 -76 q 97 -61 67 -76 q 136 -10 126 -46 z "},"-":{"ha":442,"x_min":174,"x_max":514,"o":"m 183 599 l 514 599 l 504 557 l 174 557 l 183 599 z "},".":{"ha":264,"x_min":63,"x_max":229,"o":"m 69 63 q 101 118 76 97 q 161 139 126 139 q 213 118 196 139 q 222 63 229 97 q 190 7 215 28 q 129 -14 164 -14 q 78 7 94 -14 q 69 63 63 28 z "},"/":{"ha":517,"x_min":99,"x_max":610,"o":"m 567 972 l 610 972 l 142 0 l 99 0 l 567 972 z "},":":{"ha":264,"x_min":115,"x_max":328,"o":"m 122 311 q 154 367 129 346 q 214 388 179 388 q 265 367 249 388 q 275 311 282 346 q 242 256 268 276 q 182 235 217 235 q 131 256 147 235 q 122 311 115 276 m 168 526 q 200 582 175 561 q 260 603 225 603 q 311 582 294 603 q 321 526 328 561 q 288 471 314 492 q 228 450 263 450 q 177 471 193 450 q 168 526 161 492 z "},";":{"ha":264,"x_min":119,"x_max":319,"o":"m 225 250 q 193 246 208 246 q 142 267 160 246 q 129 317 124 288 q 160 365 136 344 q 215 385 185 385 q 276 303 293 385 q 223 207 265 244 q 119 169 181 169 l 122 183 q 187 199 158 183 q 225 250 215 214 m 172 515 q 201 565 179 547 q 256 583 224 583 q 303 565 288 583 q 313 515 319 547 q 282 464 306 483 q 226 444 258 444 q 180 464 194 444 q 172 515 165 483 z "},"@":{"ha":1178,"x_min":133,"x_max":1246,"o":"m 894 153 q 789 176 831 153 q 757 254 747 200 l 686 208 q 504 153 600 153 q 384 187 425 153 q 354 274 343 221 q 383 333 361 306 q 447 387 404 361 q 557 438 490 413 q 721 490 624 464 l 813 515 l 829 594 q 829 754 851 697 q 746 811 807 811 q 670 785 704 811 q 619 718 636 760 q 584 667 606 686 q 538 647 563 647 q 496 678 503 647 q 513 744 489 710 q 552 782 528 765 q 607 811 576 799 q 672 831 638 824 q 743 838 707 838 q 915 769 858 838 q 947 586 971 700 l 893 332 q 887 214 876 253 q 943 175 897 175 q 1016 199 979 175 q 1085 263 1053 222 q 1143 360 1118 304 q 1182 479 1168 415 q 1182 661 1203 575 q 1108 812 1161 747 q 974 914 1056 876 q 790 951 893 951 q 592 914 689 951 q 414 811 494 876 q 276 659 333 746 q 197 474 218 572 q 197 288 176 375 q 269 136 217 201 q 404 33 322 71 q 588 -4 486 -4 q 770 28 681 -4 q 943 126 860 60 l 972 96 q 784 -8 885 29 q 579 -46 683 -46 q 381 -5 469 -46 q 234 106 292 36 q 155 271 176 176 q 156 474 133 365 q 241 675 179 581 q 390 840 303 769 q 584 952 478 911 q 801 993 690 993 q 999 953 911 993 q 1145 842 1088 913 q 1224 677 1203 772 q 1222 474 1246 582 q 1108 240 1192 326 q 894 153 1025 153 m 807 490 l 728 464 q 623 424 665 443 q 553 384 581 406 q 510 338 525 363 q 488 281 494 313 q 546 181 467 181 q 707 250 608 181 l 764 290 l 807 490 z "},"A":{"ha":947,"x_min":0,"x_max":953,"o":"m 589 28 q 667 56 651 28 q 675 143 683 85 l 642 375 l 361 375 l 233 149 q 206 95 215 118 q 200 58 197 72 q 219 35 203 43 q 267 28 235 28 l 261 0 l 0 0 l 6 28 q 71 36 43 28 q 120 61 99 44 q 160 104 142 78 q 199 165 179 131 l 658 972 l 701 972 l 817 165 q 830 104 822 131 q 852 61 838 78 q 890 36 867 44 q 953 28 914 28 l 947 0 l 583 0 l 589 28 m 636 417 l 586 768 l 386 417 l 636 417 z "},"B":{"ha":849,"x_min":14,"x_max":919,"o":"m 19 28 q 77 35 54 28 q 116 60 100 42 q 144 115 132 79 q 167 206 156 150 l 286 767 q 302 858 299 824 q 298 912 306 893 q 270 938 290 931 q 215 944 250 944 l 221 972 l 588 972 q 837 913 761 972 q 889 736 913 854 q 819 600 872 657 q 676 513 765 543 q 874 251 919 465 q 738 62 847 124 q 425 0 628 0 l 14 0 l 19 28 m 421 517 q 550 528 496 517 q 641 567 604 540 q 701 637 678 594 q 736 740 724 679 q 724 900 761 856 q 581 944 686 944 q 517 938 542 944 q 476 912 492 931 q 449 858 460 893 q 425 767 438 824 l 372 517 l 421 517 m 306 206 q 292 115 294 150 q 300 60 289 79 q 338 35 311 42 q 413 28 365 28 q 622 76 549 28 q 719 239 694 124 q 724 353 733 306 q 678 431 714 400 q 576 475 642 461 q 415 489 511 489 l 367 489 l 306 206 z "},"C":{"ha":875,"x_min":108,"x_max":1025,"o":"m 551 -14 q 348 24 436 -14 q 203 129 260 63 q 128 287 147 196 q 131 485 108 378 q 213 685 154 593 q 353 844 271 776 q 538 951 436 913 q 749 989 640 989 q 905 967 832 989 q 1025 907 978 946 l 1008 756 l 981 756 q 931 908 988 854 q 765 961 874 961 q 599 926 678 961 q 456 828 519 892 q 347 678 392 765 q 283 486 303 590 q 278 295 265 382 q 333 146 292 208 q 440 49 374 83 q 593 14 506 14 q 761 64 694 14 q 867 219 828 114 l 894 219 l 846 68 q 707 7 779 28 q 551 -14 635 -14 z "},"D":{"ha":861,"x_min":14,"x_max":985,"o":"m 19 28 q 85 38 61 28 q 125 71 110 49 q 149 126 140 93 q 167 206 157 160 l 286 767 q 301 846 296 813 q 301 901 307 879 q 276 934 296 924 q 215 944 257 944 l 221 972 l 640 972 q 908 844 831 972 q 936 486 985 717 q 865 278 911 369 q 753 126 818 188 q 607 32 688 64 q 433 0 526 0 l 14 0 l 19 28 m 394 28 q 537 50 476 28 q 643 126 597 72 q 723 269 689 181 q 785 492 757 358 q 817 710 813 622 q 798 849 821 797 q 725 923 775 901 q 593 944 675 944 q 524 938 551 944 q 479 912 497 931 q 449 858 461 893 q 425 767 438 824 l 306 206 q 291 115 294 150 q 297 60 288 79 q 330 35 307 42 q 394 28 353 28 z "},"E":{"ha":751,"x_min":14,"x_max":875,"o":"m 875 972 l 871 821 l 843 821 q 835 881 843 857 q 807 919 826 904 q 753 939 788 933 q 668 944 719 944 q 567 936 608 944 q 497 908 525 928 q 453 853 469 888 q 425 767 436 819 l 375 528 l 418 528 q 509 531 464 528 q 590 549 554 535 q 651 592 626 563 q 682 672 676 621 l 708 672 l 667 356 l 640 356 q 628 436 646 407 q 577 479 610 465 q 501 497 544 493 q 411 500 457 500 l 369 500 l 306 206 q 297 119 294 153 q 318 65 299 85 q 376 36 338 44 q 479 28 415 28 q 593 35 546 28 q 672 59 640 43 q 724 98 704 75 q 756 151 743 121 l 783 151 l 724 0 l 14 0 l 19 28 q 85 38 61 28 q 125 71 110 49 q 149 126 140 93 q 167 206 157 160 l 286 767 q 301 846 296 813 q 301 901 307 879 q 276 934 296 924 q 215 944 257 944 l 221 972 l 875 972 z "},"F":{"ha":696,"x_min":14,"x_max":875,"o":"m 19 28 q 85 38 61 28 q 125 71 110 49 q 149 126 140 93 q 167 206 157 160 l 286 767 q 301 846 296 813 q 301 901 307 879 q 276 934 296 924 q 215 944 257 944 l 221 972 l 875 972 l 871 821 l 843 821 q 834 882 843 858 q 804 919 825 906 q 749 939 783 933 q 667 944 715 944 q 566 936 607 944 q 497 908 525 928 q 453 853 469 888 q 425 767 436 819 l 376 535 l 447 535 q 565 542 517 535 q 644 565 613 549 q 694 607 676 581 q 722 672 713 633 l 750 672 l 685 369 l 657 369 q 660 435 667 408 q 626 477 653 461 q 554 500 600 493 q 439 507 508 507 l 371 507 l 306 206 q 291 126 296 160 q 292 71 286 93 q 317 38 297 49 q 378 28 336 28 l 372 0 l 14 0 l 19 28 z "},"G":{"ha":944,"x_min":107,"x_max":1040,"o":"m 546 -14 q 342 22 431 -14 q 199 124 254 58 q 126 280 144 189 q 129 479 107 371 q 213 682 153 589 q 357 843 272 775 q 547 950 442 911 q 764 989 651 989 q 920 967 847 989 q 1040 907 993 944 l 1024 756 l 996 756 q 983 846 999 807 q 938 910 968 885 q 863 949 907 936 q 763 961 818 961 q 597 926 675 961 q 454 826 518 890 q 345 672 390 761 q 281 474 300 582 q 274 284 263 369 q 323 139 285 199 q 424 47 361 79 q 572 14 488 14 q 694 44 651 14 q 753 144 738 75 l 781 275 q 795 369 793 335 q 785 423 797 404 q 742 447 772 442 q 658 453 711 453 l 665 481 l 1033 481 l 1026 453 q 990 445 1006 453 q 963 418 975 438 q 941 364 951 399 q 919 275 931 329 l 867 28 q 800 22 833 28 q 729 8 767 15 q 645 -7 690 0 q 546 -14 600 -14 z "},"H":{"ha":942,"x_min":14,"x_max":1135,"o":"m 19 28 q 85 38 61 28 q 125 71 110 49 q 149 126 140 93 q 167 206 157 160 l 286 767 q 301 846 296 813 q 301 901 307 879 q 276 934 296 924 q 215 944 257 944 l 221 972 l 579 972 l 574 944 q 508 934 532 944 q 468 901 483 924 q 444 846 453 879 q 425 767 435 813 l 375 528 l 792 528 l 842 767 q 857 846 851 813 q 857 901 863 879 q 832 934 851 924 q 771 944 813 944 l 776 972 l 1135 972 l 1129 944 q 1063 934 1088 944 q 1024 901 1039 924 q 999 846 1008 879 q 981 767 990 813 l 861 206 q 847 126 851 160 q 847 71 842 93 q 872 38 853 49 q 933 28 892 28 l 928 0 l 569 0 l 575 28 q 641 38 617 28 q 681 71 665 49 q 704 126 696 93 q 722 206 713 160 l 786 500 l 369 500 l 306 206 q 291 126 296 160 q 292 71 286 93 q 317 38 297 49 q 378 28 336 28 l 372 0 l 14 0 l 19 28 z "},"I":{"ha":386,"x_min":14,"x_max":579,"o":"m 19 28 q 85 38 61 28 q 125 71 110 49 q 149 126 140 93 q 167 206 157 160 l 286 767 q 301 846 296 813 q 301 901 307 879 q 276 934 296 924 q 215 944 257 944 l 221 972 l 579 972 l 574 944 q 508 934 532 944 q 468 901 483 924 q 444 846 453 879 q 425 767 435 813 l 306 206 q 291 126 296 160 q 292 71 286 93 q 317 38 297 49 q 378 28 336 28 l 372 0 l 14 0 l 19 28 z "},"J":{"ha":386,"x_min":-214,"x_max":579,"o":"m -40 -268 q -152 -244 -108 -268 q -207 -178 -196 -219 q -211 -137 -214 -157 q -199 -102 -208 -118 q -174 -76 -189 -86 q -142 -67 -160 -67 q -98 -90 -114 -67 q -85 -156 -82 -114 q -19 -240 -87 -240 q 26 -227 6 -240 q 65 -184 47 -214 q 97 -105 82 -154 q 128 17 113 -56 l 286 767 q 301 846 296 813 q 301 901 307 879 q 276 934 296 924 q 215 944 257 944 l 221 972 l 579 972 l 574 944 q 508 934 532 944 q 468 901 483 924 q 444 846 453 879 q 425 767 435 813 l 278 74 q 162 -184 242 -100 q -40 -268 82 -268 z "},"K":{"ha":860,"x_min":14,"x_max":1046,"o":"m 19 28 q 85 38 61 28 q 125 71 110 49 q 149 126 140 93 q 167 206 157 160 l 286 767 q 301 846 296 813 q 301 901 307 879 q 276 934 296 924 q 215 944 257 944 l 221 972 l 579 972 l 574 944 q 508 934 532 944 q 468 901 483 924 q 444 846 453 879 q 425 767 435 813 l 357 447 l 724 813 q 778 871 757 846 q 805 913 800 896 q 797 937 810 929 q 750 944 785 944 l 756 972 l 1046 972 l 1040 944 q 974 940 1004 944 q 915 922 944 935 q 854 883 886 908 q 781 815 822 857 l 501 538 l 701 151 q 738 92 721 117 q 773 54 754 68 q 814 34 792 40 q 865 28 836 28 l 860 0 l 497 0 l 503 28 q 549 38 536 28 q 560 69 563 49 q 544 123 558 90 q 506 199 529 156 l 389 425 l 343 379 l 306 206 q 291 126 296 160 q 292 71 286 93 q 317 38 297 49 q 378 28 336 28 l 372 0 l 14 0 l 19 28 z "},"L":{"ha":751,"x_min":14,"x_max":783,"o":"m 574 944 q 508 934 532 944 q 468 901 483 924 q 444 846 453 879 q 425 767 435 813 l 306 206 q 296 119 294 153 q 313 65 297 85 q 361 36 329 44 q 443 28 393 28 q 578 35 524 28 q 667 59 632 43 q 723 98 703 75 q 756 151 743 121 l 783 151 l 724 0 l 14 0 l 19 28 q 85 38 61 28 q 125 71 110 49 q 149 126 140 93 q 167 206 157 160 l 286 767 q 301 846 296 813 q 301 901 307 879 q 276 934 296 924 q 215 944 257 944 l 221 972 l 579 972 l 574 944 z "},"M":{"ha":1053,"x_min":0,"x_max":1178,"o":"m 611 401 l 936 972 l 1178 972 l 1172 944 q 1115 936 1138 944 q 1079 911 1093 928 q 1058 869 1065 894 q 1047 808 1051 843 l 972 206 q 964 126 967 160 q 969 71 961 93 q 997 38 976 49 q 1058 28 1017 28 l 1053 0 l 697 0 l 703 28 q 761 36 739 28 q 797 62 783 44 q 816 106 810 79 q 828 168 822 132 l 914 860 l 542 206 l 500 206 l 408 860 l 193 143 q 188 56 175 83 q 264 28 200 28 l 258 0 l 0 0 l 6 28 q 72 38 47 28 q 114 71 97 49 q 142 126 131 93 q 168 206 154 160 l 349 807 q 364 869 360 843 q 362 911 368 894 q 337 936 356 928 q 282 944 318 944 l 288 972 l 531 972 l 611 401 z "},"N":{"ha":901,"x_min":14,"x_max":1094,"o":"m 354 886 l 208 206 q 194 126 199 160 q 194 71 189 93 q 219 38 200 49 q 281 28 239 28 l 275 0 l 14 0 l 19 28 q 85 38 61 28 q 125 71 110 49 q 149 126 140 93 q 167 206 157 160 l 286 767 q 301 846 296 813 q 301 901 307 879 q 276 934 296 924 q 215 944 257 944 l 221 972 l 482 972 l 789 257 l 897 767 q 913 846 907 813 q 914 901 919 879 q 889 934 908 924 q 828 944 869 944 l 833 972 l 1094 972 l 1089 944 q 1023 934 1047 944 q 983 901 999 924 q 958 846 967 879 q 939 767 949 813 l 776 0 l 735 0 l 354 886 z "},"O":{"ha":1058,"x_min":110,"x_max":1157,"o":"m 132 488 q 213 683 154 592 q 353 842 271 774 q 535 949 436 910 q 739 989 635 989 q 926 949 843 989 q 1063 842 1008 910 q 1137 683 1117 774 q 1135 488 1157 592 q 1053 292 1113 383 q 912 133 994 201 q 730 26 829 65 q 526 -14 631 -14 q 340 26 422 -14 q 203 133 257 65 q 130 292 150 201 q 132 488 110 383 m 285 488 q 289 303 272 390 q 344 153 306 217 q 442 51 383 89 q 574 14 501 14 q 714 51 646 14 q 838 153 782 89 q 931 303 893 217 q 982 488 969 390 q 978 672 994 586 q 922 822 961 758 q 823 924 882 886 q 692 961 764 961 q 551 924 619 961 q 428 822 483 886 q 335 672 374 758 q 285 488 297 586 z "},"P":{"ha":760,"x_min":14,"x_max":907,"o":"m 19 28 q 85 38 61 28 q 125 71 110 49 q 149 126 140 93 q 167 206 157 160 l 286 767 q 301 846 296 813 q 301 901 307 879 q 276 934 296 924 q 215 944 257 944 l 221 972 l 615 972 q 839 898 771 972 q 878 689 907 824 q 740 473 849 549 q 460 397 632 397 l 347 397 l 306 206 q 291 126 296 160 q 292 71 286 93 q 317 38 297 49 q 378 28 336 28 l 372 0 l 14 0 l 19 28 m 379 425 q 517 440 458 425 q 617 485 575 454 q 685 567 658 517 q 726 690 711 618 q 719 883 754 821 q 579 944 683 944 q 521 937 544 944 q 479 909 497 929 q 449 854 461 889 q 425 767 436 819 l 353 425 l 379 425 z "},"Q":{"ha":1058,"x_min":114,"x_max":1492,"o":"m 132 488 q 213 683 154 592 q 353 842 271 774 q 535 949 436 910 q 739 989 635 989 q 926 949 843 989 q 1063 842 1008 910 q 1137 683 1117 774 q 1135 488 1157 592 q 1063 309 1114 393 q 941 158 1013 225 q 782 48 869 92 q 600 -8 694 4 l 1064 -153 q 1180 -183 1118 -169 q 1300 -197 1242 -197 q 1460 -131 1419 -197 l 1492 -131 q 1360 -252 1443 -214 q 1185 -290 1278 -290 q 1079 -280 1133 -290 q 972 -246 1025 -269 l 374 11 q 254 87 307 40 q 168 195 201 133 q 124 331 135 257 q 132 488 114 404 m 285 488 q 289 303 272 390 q 344 153 306 217 q 442 51 383 89 q 574 14 501 14 q 714 51 646 14 q 838 153 782 89 q 931 303 893 217 q 982 488 969 390 q 978 672 994 586 q 922 822 961 758 q 823 924 882 886 q 692 961 764 961 q 551 924 619 961 q 428 822 483 886 q 335 672 374 758 q 285 488 297 586 z "},"R":{"ha":856,"x_min":14,"x_max":911,"o":"m 19 28 q 77 35 54 28 q 116 60 100 42 q 144 115 132 79 q 167 206 156 150 l 286 767 q 302 858 299 824 q 298 912 306 893 q 270 938 290 931 q 215 944 250 944 l 221 972 l 615 972 q 841 906 771 972 q 885 719 911 840 q 800 560 865 626 q 631 465 735 494 q 771 358 740 433 q 782 165 801 283 q 779 56 769 85 q 828 28 789 28 l 847 28 l 842 0 l 732 0 q 643 38 667 0 q 631 158 619 75 q 637 301 642 244 q 605 390 632 357 q 524 438 578 424 q 385 451 471 451 l 358 451 l 306 206 q 291 115 294 150 q 295 60 288 79 q 323 35 303 42 q 378 28 343 28 l 372 0 l 14 0 l 19 28 m 390 479 q 528 492 469 479 q 627 535 586 506 q 693 609 668 564 q 732 718 718 654 q 719 890 757 835 q 578 944 682 944 q 519 938 543 944 q 478 910 496 931 q 449 856 461 890 q 425 767 438 821 l 364 479 l 390 479 z "},"S":{"ha":728,"x_min":50,"x_max":831,"o":"m 360 14 q 445 26 404 14 q 519 61 486 39 q 575 113 553 83 q 604 176 597 142 q 604 228 610 203 q 580 283 599 254 q 527 347 561 313 q 440 426 493 382 q 328 532 372 485 q 261 619 285 579 q 231 695 238 658 q 233 769 225 732 q 272 858 244 818 q 341 926 300 897 q 435 970 382 954 q 547 986 488 986 q 712 953 636 986 q 831 863 788 921 l 771 711 l 743 711 q 754 806 760 761 q 724 885 749 851 q 658 940 700 919 q 563 960 617 960 q 442 924 490 960 q 381 824 394 889 q 380 767 375 794 q 406 707 385 739 q 467 635 426 675 q 572 538 508 594 q 667 448 629 489 q 725 371 704 407 q 751 301 746 335 q 749 231 757 267 q 703 133 738 178 q 618 55 669 88 q 501 4 567 22 q 363 -14 436 -14 q 50 146 154 -14 l 124 332 l 151 332 q 136 209 131 267 q 170 108 142 151 q 247 39 199 64 q 360 14 296 14 z "},"T":{"ha":878,"x_min":156,"x_max":1057,"o":"m 265 28 q 323 35 300 28 q 362 60 346 42 q 390 115 378 79 q 413 206 401 150 l 529 753 q 545 851 542 814 q 540 910 549 889 q 507 938 531 931 q 443 944 483 944 q 354 935 392 944 q 287 901 317 925 q 233 835 257 876 q 183 732 208 794 l 156 732 l 235 972 l 1057 972 l 1033 732 l 1006 732 q 1000 835 1007 794 q 974 901 993 876 q 922 935 956 925 q 838 944 889 944 q 771 938 797 944 q 726 910 744 931 q 694 851 707 889 q 668 753 681 814 l 551 206 q 537 115 540 150 q 541 60 533 79 q 569 35 549 42 q 624 28 589 28 l 618 0 l 260 0 l 265 28 z "},"U":{"ha":928,"x_min":169,"x_max":1121,"o":"m 286 767 q 301 846 296 813 q 301 901 307 879 q 276 934 296 924 q 215 944 257 944 l 221 972 l 579 972 l 574 944 q 508 934 532 944 q 468 901 483 924 q 444 846 453 879 q 425 767 435 813 l 324 289 q 312 175 310 226 q 333 88 314 124 q 392 33 353 53 q 494 14 432 14 q 708 88 621 14 q 824 290 796 163 l 925 767 q 940 846 935 813 q 940 901 946 879 q 915 934 935 924 q 854 944 896 944 l 860 972 l 1121 972 l 1115 944 q 1049 934 1074 944 q 1010 901 1025 924 q 985 846 994 879 q 967 767 976 813 l 860 261 q 811 151 847 201 q 722 63 775 100 q 603 6 669 26 q 461 -14 536 -14 q 329 7 388 -14 q 234 67 271 28 q 183 162 197 106 q 185 289 169 218 l 286 767 z "},"V":{"ha":942,"x_min":201,"x_max":1149,"o":"m 336 821 q 296 917 325 890 q 201 944 267 944 l 207 972 l 583 972 l 578 944 q 525 938 546 944 q 494 916 504 932 q 482 873 483 900 q 486 806 481 846 l 575 208 l 928 835 q 951 920 961 896 q 881 944 942 944 l 886 972 l 1149 972 l 1143 944 q 1086 938 1111 944 q 1040 917 1061 932 q 1001 878 1019 903 q 961 818 982 854 l 503 0 l 458 0 l 336 821 z "},"W":{"ha":1460,"x_min":201,"x_max":1667,"o":"m 329 822 q 317 877 325 854 q 295 915 310 900 q 258 938 281 931 q 201 944 236 944 l 207 972 l 576 972 l 571 944 q 514 936 535 944 q 484 910 493 928 q 475 867 475 893 q 479 806 475 842 l 568 208 l 867 739 l 854 821 q 841 876 849 853 q 818 914 833 899 q 779 937 803 929 q 719 944 756 944 l 725 972 l 1101 972 l 1096 944 q 1038 936 1058 944 q 1009 911 1018 928 q 1000 869 1000 894 q 1006 807 1000 843 l 1093 208 l 1436 819 q 1463 875 1454 851 q 1469 914 1472 899 q 1450 937 1467 929 q 1399 944 1433 944 l 1404 972 l 1667 972 l 1661 944 q 1594 937 1622 944 q 1543 914 1565 929 q 1503 875 1521 899 q 1465 818 1485 851 l 1007 0 l 976 0 l 871 694 l 482 0 l 451 0 l 329 822 z "},"X":{"ha":799,"x_min":0,"x_max":1006,"o":"m 432 28 q 493 38 474 28 q 517 71 513 49 q 515 126 522 93 q 496 206 508 160 l 444 411 l 288 206 q 228 126 253 160 q 197 71 204 93 q 200 38 189 49 q 247 28 211 28 l 242 0 l 0 0 l 6 28 q 63 36 38 28 q 112 61 89 44 q 158 103 135 78 q 207 164 181 129 l 432 458 l 349 794 q 328 861 339 833 q 302 908 318 889 q 263 935 286 926 q 201 944 239 944 l 207 972 l 578 972 l 572 944 q 492 919 508 944 q 490 840 476 893 l 561 561 l 717 767 q 777 846 753 813 q 809 901 801 879 q 805 934 817 924 q 757 944 793 944 l 763 972 l 1006 972 l 1000 944 q 942 936 968 944 q 894 911 917 928 q 849 869 871 894 q 799 808 826 843 l 574 514 l 657 178 q 677 111 667 139 q 703 65 688 83 q 742 37 718 46 q 804 28 767 28 l 799 0 l 426 0 l 432 28 z "},"Y":{"ha":853,"x_min":201,"x_max":1060,"o":"m 242 28 q 308 38 283 28 q 347 71 332 49 q 371 126 363 93 q 389 206 379 160 l 439 435 l 344 806 q 325 867 335 842 q 299 910 315 893 q 260 936 283 928 q 201 944 238 944 l 207 972 l 578 972 l 572 944 q 496 921 513 944 q 484 887 485 908 q 494 828 483 865 l 575 508 l 771 767 q 816 827 799 803 q 844 868 833 851 q 860 896 856 885 q 865 915 865 907 q 811 944 868 944 l 817 972 l 1060 972 l 1054 944 q 997 937 1022 944 q 947 913 971 929 q 901 870 924 896 q 851 808 878 844 l 582 454 l 528 206 q 513 126 518 160 q 514 71 508 93 q 539 38 519 49 q 600 28 558 28 l 594 0 l 236 0 l 242 28 z "},"Z":{"ha":678,"x_min":28,"x_max":857,"o":"m 33 28 l 700 943 l 599 943 q 324 913 421 943 q 201 819 228 883 l 174 819 l 235 971 q 478 972 357 971 q 722 972 600 972 l 857 972 l 850 943 l 183 28 l 285 28 q 559 58 463 28 q 682 151 656 88 l 710 151 l 650 0 l 28 0 l 33 28 z "},"\\":{"ha":517,"x_min":306,"x_max":403,"o":"m 360 0 l 306 972 l 349 972 l 403 0 l 360 0 z "},"^":{"ha":440,"x_min":219,"x_max":554,"o":"m 219 783 l 422 950 l 554 783 l 496 783 l 410 890 l 279 783 l 219 783 z "},"a":{"ha":739,"x_min":89,"x_max":792,"o":"m 751 594 l 668 196 q 675 54 638 54 q 719 81 694 56 q 764 147 744 107 l 792 147 q 707 23 749 60 q 608 -14 665 -14 q 533 23 550 -14 q 532 142 517 60 l 536 164 q 435 28 492 69 q 293 -14 378 -14 q 180 18 224 -14 q 115 102 136 50 q 91 219 93 154 q 103 350 89 285 q 156 500 119 433 q 244 613 193 567 q 358 684 296 660 q 492 708 421 708 q 624 681 563 708 q 751 594 685 654 m 329 14 q 406 41 368 14 q 476 117 443 68 q 538 235 510 165 q 583 390 565 306 l 617 549 q 578 660 628 631 q 494 681 543 681 q 400 655 444 681 q 320 581 356 629 q 260 464 285 533 q 224 308 235 394 q 217 194 215 249 q 232 101 219 140 q 268 38 244 61 q 329 14 292 14 z "},"b":{"ha":749,"x_min":14,"x_max":810,"o":"m 14 0 l 19 28 q 85 38 61 28 q 125 71 110 49 q 149 126 140 93 q 167 206 157 160 l 306 854 q 314 904 313 886 q 307 932 315 922 q 277 944 299 942 q 214 947 256 947 l 219 975 q 443 1042 326 975 l 469 1042 l 363 536 q 458 662 403 615 q 606 708 514 708 q 717 678 674 708 q 782 597 760 647 q 807 485 804 547 q 797 357 810 422 q 744 206 781 274 q 658 88 707 138 q 551 13 610 39 q 433 -14 493 -14 q 324 6 375 -14 q 249 54 272 26 q 185 42 215 53 q 125 19 156 32 q 83 6 104 11 q 42 0 63 0 l 14 0 m 568 681 q 491 653 529 681 q 419 577 453 626 q 358 458 386 528 q 313 303 331 389 l 281 151 q 282 88 274 115 q 310 42 290 60 q 403 14 342 14 q 497 40 453 14 q 577 113 542 65 q 638 231 613 161 q 674 386 663 300 q 680 501 682 447 q 665 594 678 554 q 629 657 653 633 q 568 681 606 681 z "},"c":{"ha":656,"x_min":83,"x_max":735,"o":"m 501 681 q 358 612 424 681 q 260 428 293 543 q 231 262 233 338 q 249 132 229 186 q 308 47 268 78 q 408 15 349 17 q 499 28 451 14 q 599 69 546 42 l 636 89 l 644 64 l 593 38 q 491 -1 540 11 q 383 -14 442 -14 q 240 11 301 -14 q 142 83 179 36 q 94 197 106 129 q 101 347 83 264 q 157 497 119 431 q 248 610 194 564 q 369 683 301 657 q 514 708 436 708 q 606 694 565 708 q 676 656 647 679 q 719 603 704 632 q 735 543 735 574 q 715 478 735 508 q 658 449 696 449 q 621 463 636 449 q 606 500 606 476 q 601 583 606 549 q 584 639 596 617 q 553 671 572 661 q 501 681 533 681 z "},"d":{"ha":738,"x_min":89,"x_max":847,"o":"m 536 164 q 437 29 492 72 q 300 -14 382 -14 q 185 18 231 -14 q 117 102 140 50 q 92 219 94 154 q 103 350 89 285 q 156 500 119 433 q 242 613 193 567 q 350 684 290 660 q 472 708 410 708 q 639 651 565 708 l 683 854 q 692 904 690 886 q 685 932 694 922 q 655 944 676 942 q 592 947 633 947 l 597 975 q 821 1042 704 975 l 847 1042 l 668 196 q 674 54 638 54 q 719 81 693 56 q 764 147 744 107 l 792 147 q 707 23 749 60 q 608 -14 665 -14 q 533 23 550 -14 q 531 139 517 60 l 536 164 m 329 14 q 406 41 368 14 q 478 118 444 68 q 539 239 511 168 q 585 396 567 310 l 617 544 q 576 661 626 628 q 494 681 544 681 q 400 655 444 681 q 320 581 356 629 q 260 464 285 533 q 224 308 235 394 q 217 194 215 249 q 232 101 219 140 q 268 38 244 61 q 329 14 292 14 z "},"e":{"ha":689,"x_min":83,"x_max":765,"o":"m 636 513 q 636 585 644 554 q 608 638 628 617 q 561 669 589 658 q 503 679 533 679 q 358 608 422 679 q 264 421 294 538 q 435 371 347 371 q 563 403 506 371 q 636 513 619 436 m 411 15 q 510 31 454 15 q 615 72 567 46 l 651 92 l 661 64 l 610 39 q 496 -1 557 14 q 378 -15 435 -15 q 236 10 296 -15 q 140 82 176 35 q 94 197 104 129 q 101 347 83 264 q 161 496 119 429 q 262 610 203 563 q 392 682 321 657 q 539 707 463 707 q 640 693 596 707 q 714 653 685 679 q 754 592 743 628 q 757 513 765 557 q 717 430 747 463 q 646 378 686 397 q 558 350 606 358 q 465 342 511 342 q 362 353 414 342 q 258 394 310 365 q 256 107 218 199 q 411 15 294 15 z "},"f":{"ha":372,"x_min":-178,"x_max":725,"o":"m 143 93 l 265 667 l 182 667 l 185 681 l 274 708 l 278 728 q 392 958 310 875 q 590 1042 475 1042 q 675 1024 640 1042 q 717 975 710 1007 q 707 915 725 943 q 658 888 689 888 q 622 905 635 888 q 607 954 608 922 q 554 1014 606 1014 q 411 763 464 1014 l 396 694 l 507 694 l 501 667 l 390 667 l 274 119 q 228 -15 258 46 q 157 -119 199 -75 q 65 -187 115 -162 q -43 -211 14 -211 q -127 -194 -93 -211 q -169 -144 -161 -176 q -160 -85 -178 -112 q -111 -57 -142 -57 q -74 -74 -87 -57 q -60 -124 -61 -92 q -7 -183 -58 -183 q 37 -163 15 -183 q 78 -107 58 -143 q 114 -20 97 -71 q 143 93 131 31 z "},"g":{"ha":638,"x_min":4,"x_max":742,"o":"m 261 439 q 281 264 247 331 q 382 197 314 197 q 447 215 417 197 q 500 264 476 232 q 540 340 524 296 q 564 439 556 385 q 566 538 571 493 q 545 614 561 582 q 503 663 529 646 q 443 681 476 681 q 378 663 408 681 q 325 614 349 646 q 285 538 301 582 q 261 439 269 493 m 185 0 q 126 -90 144 -49 q 108 -174 108 -131 q 137 -255 110 -226 q 217 -283 164 -283 q 295 -272 256 -283 q 368 -239 335 -261 q 426 -185 401 -217 q 460 -114 451 -154 q 435 -26 472 -53 q 303 0 399 0 l 185 0 m 122 439 q 166 549 135 500 q 243 634 197 599 q 347 689 289 669 q 469 708 404 708 l 742 725 l 729 664 l 624 671 q 699 578 678 638 q 703 439 719 518 q 659 328 690 378 q 582 244 628 279 q 478 189 536 208 q 356 169 421 169 q 177 166 243 169 q 107 142 111 163 q 109 135 106 138 q 123 130 113 132 q 153 126 133 128 q 207 125 174 125 l 426 125 q 572 81 528 125 q 597 -49 615 38 q 543 -161 583 -112 q 449 -243 503 -210 q 331 -293 394 -276 q 207 -310 268 -310 q 58 -265 111 -310 q 21 -146 4 -221 q 65 -62 31 -99 q 157 0 100 -25 q 72 30 104 0 q 50 107 40 60 q 105 176 61 154 q 218 199 149 197 q 130 292 156 231 q 122 439 104 354 z "},"h":{"ha":826,"x_min":14,"x_max":878,"o":"m 361 532 q 479 663 410 618 q 632 708 549 708 q 719 694 681 708 q 784 653 758 679 q 820 592 810 628 q 822 517 831 557 l 754 196 q 740 88 739 122 q 760 54 740 54 q 805 81 779 56 q 850 147 831 107 l 878 147 q 792 23 835 60 q 694 -14 750 -14 q 618 24 636 -14 q 618 142 600 61 l 681 439 q 606 681 731 681 q 525 658 567 681 q 447 599 483 636 q 381 511 411 561 q 335 406 351 461 l 292 206 q 277 126 282 160 q 278 71 272 93 q 303 38 283 49 q 364 28 322 28 l 358 0 l 14 0 l 19 28 q 85 38 61 28 q 125 71 110 49 q 149 126 140 93 q 167 206 157 160 l 306 854 q 315 904 313 886 q 308 932 317 922 q 277 944 299 942 q 214 947 256 947 l 219 975 q 443 1042 326 975 l 469 1042 l 361 532 z "},"i":{"ha":371,"x_min":113,"x_max":444,"o":"m 299 861 q 328 912 306 893 q 382 931 350 931 q 429 912 414 931 q 438 861 444 893 q 408 810 431 829 q 353 792 385 792 q 306 810 321 792 q 299 861 292 829 m 289 196 q 296 54 260 54 q 340 81 315 56 q 385 147 365 107 l 413 147 q 328 23 369 60 q 231 -14 286 -14 q 154 24 172 -14 q 153 142 136 61 l 229 499 q 222 640 258 640 q 182 613 206 639 q 140 547 158 586 l 113 547 q 197 672 156 635 q 292 708 238 708 q 365 671 349 708 q 365 553 382 633 l 289 196 z "},"j":{"ha":347,"x_min":-208,"x_max":446,"o":"m 300 861 q 329 912 307 893 q 383 931 351 931 q 431 912 415 931 q 439 861 446 893 q 409 810 432 829 q 354 792 386 792 q 308 810 322 792 q 300 861 293 829 m -28 -290 q 17 -276 -3 -290 q 55 -231 38 -262 q 88 -151 72 -200 q 118 -32 104 -101 l 233 507 q 242 557 240 539 q 235 585 243 575 q 205 597 226 594 q 142 600 183 600 l 147 628 q 371 694 253 628 l 397 694 l 256 25 q -40 -318 182 -318 q -147 -293 -103 -318 q -203 -226 -190 -268 q -205 -186 -208 -206 q -192 -151 -201 -167 q -168 -126 -183 -136 q -135 -117 -153 -117 q -93 -140 -110 -117 q -79 -217 -76 -162 q -72 -268 -81 -246 q -28 -290 -62 -290 z "},"k":{"ha":800,"x_min":14,"x_max":844,"o":"m 564 550 q 651 623 617 594 q 710 667 686 651 q 749 689 733 683 q 779 694 765 694 q 815 687 800 694 q 837 667 829 679 q 843 641 844 656 q 831 614 842 626 q 808 599 819 603 q 786 596 797 596 q 772 597 779 596 q 757 599 764 597 q 655 581 701 610 q 551 503 608 551 l 451 417 l 590 206 q 645 126 621 160 q 693 71 669 93 q 743 38 717 49 q 806 28 769 28 l 800 0 l 428 0 l 433 28 q 489 38 474 28 q 500 71 504 49 q 475 126 496 93 q 424 206 454 160 l 344 326 l 313 299 l 292 206 q 277 126 282 160 q 278 71 272 93 q 303 38 283 49 q 364 28 322 28 l 358 0 l 14 0 l 19 28 q 85 38 61 28 q 125 71 110 49 q 149 126 140 93 q 167 206 157 160 l 306 854 q 314 904 313 886 q 307 932 315 922 q 277 944 299 942 q 214 947 256 947 l 219 975 q 443 1042 326 975 l 469 1042 l 321 343 l 564 550 z "},"l":{"ha":372,"x_min":138,"x_max":469,"o":"m 290 196 q 297 54 260 54 q 342 81 317 56 q 386 147 367 107 l 414 147 q 329 23 371 60 q 231 -14 288 -14 q 155 24 172 -14 q 154 142 138 61 l 306 854 q 314 904 313 886 q 307 932 315 922 q 277 944 299 942 q 214 947 256 947 l 219 975 q 443 1042 326 975 l 469 1042 l 290 196 z "},"m":{"ha":1282,"x_min":14,"x_max":1342,"o":"m 1219 196 q 1225 54 1189 54 q 1269 81 1244 56 q 1314 147 1294 107 l 1342 147 q 1257 23 1299 60 q 1160 -14 1215 -14 q 1083 24 1101 -14 q 1082 142 1065 61 l 1144 439 q 1071 681 1197 681 q 987 658 1031 681 q 905 597 943 636 q 838 507 867 558 q 797 399 810 456 l 714 0 l 589 0 l 681 439 q 606 681 731 681 q 523 657 565 681 q 443 594 481 633 q 376 502 406 554 q 332 392 347 450 l 282 158 q 275 101 276 125 q 281 60 274 76 q 309 35 289 43 q 364 28 329 28 l 358 0 l 14 0 l 19 28 q 85 38 61 28 q 125 71 110 49 q 149 126 140 93 q 167 206 157 160 l 229 499 q 243 606 244 572 q 222 640 242 640 q 178 613 203 639 q 133 547 153 588 l 106 547 q 190 672 149 635 q 289 708 232 708 q 365 671 347 708 q 365 553 382 633 l 360 529 q 478 663 408 617 q 632 708 547 708 q 717 694 679 708 q 781 657 754 681 q 819 600 807 633 q 825 529 831 567 q 943 663 874 617 q 1097 708 1013 708 q 1185 694 1146 708 q 1249 653 1224 679 q 1285 592 1275 628 q 1288 517 1296 557 l 1219 196 z "},"n":{"ha":826,"x_min":14,"x_max":878,"o":"m 754 196 q 740 88 739 122 q 761 54 742 54 q 806 81 781 56 q 850 147 831 107 l 878 147 q 793 23 835 60 q 694 -14 751 -14 q 619 24 636 -14 q 618 142 601 61 l 681 439 q 606 681 731 681 q 523 657 565 681 q 443 594 481 633 q 376 501 406 554 q 332 390 347 449 l 283 160 q 274 101 276 126 q 281 60 272 76 q 309 35 289 43 q 364 28 329 28 l 358 0 l 14 0 l 19 28 q 85 38 61 28 q 125 71 110 49 q 149 126 140 93 q 167 206 157 160 l 229 499 q 243 606 244 572 q 222 640 242 640 q 178 613 203 639 q 133 547 153 588 l 106 547 q 190 672 149 635 q 289 708 232 708 q 365 671 347 708 q 365 553 382 633 l 360 529 q 478 663 408 617 q 632 708 547 708 q 719 694 681 708 q 784 653 758 679 q 820 592 810 628 q 822 517 831 557 l 754 196 z "},"o":{"ha":706,"x_min":85,"x_max":768,"o":"m 101 347 q 156 495 118 429 q 246 609 193 561 q 365 683 299 657 q 503 708 431 708 q 631 683 576 708 q 717 609 685 657 q 759 495 750 561 q 751 347 768 429 q 697 200 735 267 q 607 85 660 133 q 489 12 554 38 q 350 -14 424 -14 q 223 12 278 -14 q 135 85 168 38 q 94 200 103 133 q 101 347 85 267 m 240 347 q 235 211 231 272 q 259 106 240 150 q 309 38 278 63 q 382 14 340 14 q 461 38 424 14 q 529 106 499 63 q 581 211 560 150 q 613 347 603 272 q 618 484 624 422 q 594 590 613 546 q 544 657 575 633 q 471 681 513 681 q 392 657 429 681 q 324 590 354 633 q 273 484 294 546 q 240 347 251 422 z "},"p":{"ha":750,"x_min":-58,"x_max":811,"o":"m 365 540 q 460 663 404 617 q 607 708 517 708 q 718 678 675 708 q 783 597 761 647 q 808 485 806 547 q 799 357 811 422 q 745 206 782 274 q 660 88 708 138 q 553 13 611 39 q 435 -14 494 -14 q 334 3 382 -14 q 260 44 286 21 l 219 -142 q 205 -221 210 -187 q 206 -276 200 -254 q 231 -309 211 -299 q 292 -319 250 -319 l 286 -347 l -58 -347 l -53 -319 q 13 -309 -11 -319 q 53 -276 38 -299 q 76 -221 68 -254 q 94 -142 85 -187 l 233 507 q 242 557 240 539 q 235 585 243 575 q 205 597 226 594 q 142 600 183 600 l 147 628 q 371 694 253 628 l 397 694 l 365 540 m 569 681 q 492 653 531 681 q 421 577 454 626 q 360 458 388 528 q 315 303 333 389 l 282 151 q 304 50 269 89 q 404 14 336 14 q 499 40 454 14 q 580 113 544 65 q 640 231 615 161 q 675 386 664 300 q 681 501 683 447 q 667 594 679 554 q 631 657 654 633 q 569 681 607 681 z "},"q":{"ha":772,"x_min":111,"x_max":892,"o":"m 340 -347 l 346 -319 q 412 -309 388 -319 q 451 -276 436 -299 q 475 -221 467 -254 q 493 -142 483 -187 l 558 160 q 463 33 518 81 q 314 -14 407 -14 q 201 18 244 -14 q 135 102 157 50 q 113 219 114 154 q 125 350 111 285 q 178 500 142 433 q 263 613 214 567 q 371 684 313 660 q 490 708 429 708 q 597 690 547 708 q 668 643 646 671 q 694 644 685 643 q 715 650 704 646 q 788 681 753 664 q 864 697 824 697 l 892 697 l 885 669 q 835 663 854 669 q 801 638 815 657 q 776 583 786 618 q 753 492 765 549 l 618 -142 q 603 -221 608 -187 q 604 -276 599 -254 q 629 -309 610 -299 q 690 -319 649 -319 l 685 -347 l 340 -347 m 351 14 q 428 41 390 14 q 500 118 467 68 q 561 239 533 168 q 607 396 589 310 l 635 526 q 596 663 656 628 q 517 681 568 681 q 422 655 467 681 q 342 581 378 629 q 282 464 307 533 q 246 308 257 394 q 240 194 238 249 q 254 101 242 140 q 290 38 267 61 q 351 14 314 14 z "},"r":{"ha":557,"x_min":14,"x_max":685,"o":"m 19 28 q 85 38 61 28 q 125 71 110 49 q 149 126 140 93 q 167 206 157 160 l 232 507 q 240 557 239 539 q 233 585 242 575 q 203 597 225 594 q 140 600 182 600 l 146 628 q 369 694 251 628 l 396 694 l 342 438 l 385 531 q 428 616 408 582 q 468 671 449 650 q 509 700 488 692 q 557 708 531 708 q 648 680 611 708 q 685 607 685 651 q 668 553 683 579 q 621 528 653 528 q 597 532 610 528 q 575 546 585 536 q 560 572 565 556 q 558 615 554 589 q 556 662 563 643 q 529 681 549 681 q 473 640 503 681 q 401 507 443 600 l 317 322 l 292 206 q 277 126 282 160 q 278 71 272 93 q 303 38 283 49 q 364 28 322 28 l 358 0 l 14 0 l 19 28 z "},"s":{"ha":538,"x_min":38,"x_max":621,"o":"m 246 14 q 306 23 278 14 q 358 48 335 32 q 398 85 382 64 q 419 131 414 106 q 402 206 426 167 q 307 307 378 244 q 233 379 263 347 q 188 440 204 411 q 168 494 172 468 q 169 546 164 519 q 198 611 176 582 q 252 663 219 640 q 328 697 285 685 q 421 708 371 708 q 540 687 488 708 q 621 629 593 665 l 578 518 l 550 518 q 543 635 575 590 q 436 681 511 681 q 339 651 374 681 q 296 582 304 622 q 295 547 292 564 q 313 509 299 531 q 356 458 328 488 q 426 388 383 429 q 529 265 503 315 q 544 164 556 214 q 511 92 536 125 q 449 36 486 60 q 364 -1 411 13 q 264 -14 317 -14 q 38 104 117 -14 l 92 240 l 119 240 q 104 150 103 192 q 123 78 106 108 q 172 31 140 49 q 246 14 203 14 z "},"t":{"ha":371,"x_min":136,"x_max":525,"o":"m 264 667 l 167 667 l 172 694 q 327 745 265 694 q 406 875 389 796 l 433 875 l 394 694 l 525 694 l 519 667 l 389 667 l 289 196 q 296 54 260 54 q 340 81 315 56 q 385 147 365 107 l 413 147 q 328 23 369 60 q 231 -14 286 -14 q 154 24 172 -14 q 153 142 136 61 l 264 667 z "},"u":{"ha":826,"x_min":107,"x_max":879,"o":"m 231 499 q 244 606 246 572 q 224 640 243 640 q 179 613 204 639 q 135 547 154 588 l 107 547 q 192 672 150 635 q 289 708 233 708 q 365 671 347 708 q 367 553 383 633 l 304 257 q 379 14 251 14 q 462 38 419 14 q 542 101 504 61 q 608 192 579 140 q 653 303 638 244 l 735 694 l 860 694 l 756 196 q 761 54 725 54 q 806 81 781 56 q 851 147 832 107 l 879 147 q 794 23 836 60 q 696 -14 751 -14 q 620 24 638 -14 q 619 142 603 61 l 624 165 q 506 32 575 78 q 353 -14 438 -14 q 265 1 304 -14 q 200 41 226 15 q 163 102 174 67 q 161 178 153 138 l 231 499 z "},"v":{"ha":614,"x_min":117,"x_max":689,"o":"m 294 14 q 397 51 338 8 q 508 169 456 93 q 544 228 526 196 q 579 297 563 261 q 610 369 596 332 q 632 439 624 406 q 603 640 674 617 q 553 662 568 651 q 539 682 539 672 q 556 703 538 697 q 590 708 575 708 q 672 639 654 708 q 657 436 689 569 q 610 299 643 376 q 528 151 576 221 q 417 34 479 82 q 282 -14 354 -14 q 177 42 210 -14 q 171 225 144 99 l 238 533 q 249 607 249 582 q 226 632 249 632 q 149 547 182 631 l 117 547 q 294 721 192 721 q 366 680 347 721 q 368 563 385 639 l 299 239 q 276 123 283 167 q 268 56 268 79 q 275 24 268 32 q 294 14 282 15 z "},"w":{"ha":965,"x_min":115,"x_max":1043,"o":"m 299 239 q 276 122 283 167 q 267 54 268 78 q 272 22 267 31 q 290 14 278 14 q 364 53 322 14 q 453 161 406 92 q 533 306 497 228 q 585 458 569 383 l 635 694 l 760 694 l 665 239 q 644 122 650 167 q 638 54 638 78 q 647 22 639 31 q 671 14 656 14 q 761 53 711 14 q 858 161 811 92 q 934 295 899 219 q 986 439 969 371 q 958 640 1031 617 q 908 662 922 651 q 893 682 894 672 q 911 703 893 697 q 944 708 929 708 q 1026 639 1008 708 q 1011 436 1043 569 q 991 369 1004 406 q 960 294 978 333 q 922 218 942 256 q 879 147 901 181 q 767 24 822 63 q 649 -14 713 -14 q 540 42 572 -14 q 535 225 508 99 l 544 265 q 499 178 526 226 q 438 88 472 131 q 361 15 403 44 q 272 -14 319 -14 q 215 0 240 -14 q 176 43 190 14 q 159 117 161 72 q 169 225 157 163 l 236 533 q 217 633 257 633 q 201 628 208 633 q 183 609 193 622 q 161 573 174 596 q 131 513 149 550 l 115 547 q 294 721 192 721 q 365 680 347 721 q 368 563 383 639 l 299 239 z "},"x":{"ha":736,"x_min":-37,"x_max":865,"o":"m 593 -14 q 507 14 544 -14 q 443 101 469 42 l 365 282 l 272 172 q 134 29 188 72 q 40 -14 81 -14 q -2 -1 15 -14 q -28 29 -19 11 q -37 66 -37 47 q -25 97 -36 85 q -1 107 -17 107 q 53 89 21 107 q 99 76 74 76 q 224 156 157 76 l 354 308 l 260 524 q 221 603 235 583 q 189 622 207 622 q 154 603 171 622 q 106 529 138 583 l 81 529 q 126 618 107 583 q 164 673 146 653 q 201 701 182 693 q 242 708 219 708 q 324 674 290 708 q 396 554 358 640 l 461 407 l 588 558 q 652 631 625 603 q 701 677 679 660 q 742 701 724 694 q 778 708 760 708 q 826 696 807 708 q 856 665 846 683 q 865 628 865 647 q 853 597 864 610 q 829 588 844 588 q 775 606 807 588 q 735 617 756 617 q 596 529 671 617 l 471 381 l 563 172 q 610 88 585 122 q 664 54 636 54 q 749 147 704 54 l 776 147 q 692 23 733 60 q 593 -14 650 -14 z "},"y":{"ha":628,"x_min":-21,"x_max":706,"o":"m 283 -183 q 188 -243 239 -222 q 93 -264 138 -264 q 8 -235 40 -264 q -18 -186 -15 -212 q -3 -144 -21 -160 q 24 -136 8 -136 q 71 -157 49 -136 q 168 -203 121 -203 q 244 -176 206 -203 q 319 -112 283 -150 q 385 -35 356 -75 q 433 32 415 6 q 367 -1 403 11 q 290 -14 331 -14 q 232 0 257 -14 q 192 43 207 14 q 176 117 178 72 q 188 225 174 163 l 254 533 q 235 633 275 633 q 201 615 215 632 q 163 547 188 597 l 133 547 q 311 721 208 721 q 383 680 364 721 q 385 563 401 639 l 315 239 q 292 123 300 167 q 284 56 285 79 q 290 24 283 32 q 308 14 296 15 q 358 21 331 11 q 413 50 385 31 q 468 98 440 69 q 519 161 496 126 q 598 299 563 224 q 649 439 633 375 q 619 640 690 617 q 570 662 585 651 q 556 682 556 672 q 573 703 554 697 q 607 708 592 708 q 688 639 671 708 q 674 436 706 569 q 639 336 663 392 q 583 222 615 281 q 513 103 551 163 q 435 -10 475 43 q 357 -109 396 -64 q 283 -183 318 -154 z "},"z":{"ha":525,"x_min":63,"x_max":631,"o":"m 603 635 l 175 121 q 169 104 168 111 q 182 97 171 97 q 208 103 189 97 q 260 117 228 110 q 310 122 282 122 q 380 113 342 122 q 479 79 418 103 q 515 71 500 71 q 563 125 550 71 l 589 122 q 527 23 575 58 q 413 -14 479 -12 q 328 -4 364 -14 q 256 14 293 6 q 228 18 242 17 q 199 19 214 19 q 147 16 175 19 q 86 1 119 13 q 65 10 68 -4 q 66 26 63 17 q 78 46 69 36 l 457 499 q 515 576 506 556 q 513 597 524 597 q 486 591 506 597 q 435 578 467 585 q 385 572 413 572 q 315 582 353 572 q 215 615 276 592 q 179 624 194 624 q 132 569 144 624 l 106 572 q 167 672 119 636 q 282 708 215 707 q 366 699 331 708 q 438 682 401 689 q 496 675 468 675 q 608 693 544 675 q 628 683 628 700 q 603 635 631 667 z "},"¢":{"ha":794,"x_min":0,"x_max":0,"o":""},"“":{"ha":475,"x_min":232,"x_max":610,"o":"m 300 942 q 317 945 310 944 q 333 946 324 946 q 385 925 367 946 q 396 875 403 904 q 365 827 389 847 q 311 807 342 807 q 249 889 232 807 q 302 985 261 947 q 406 1022 343 1022 l 403 1008 q 326 983 354 1008 q 300 942 307 968 m 504 942 q 521 945 514 944 q 538 946 528 946 q 589 925 571 946 q 600 875 607 904 q 569 827 593 847 q 515 807 546 807 q 453 889 436 807 q 506 985 465 947 q 610 1022 547 1022 l 607 1008 q 531 983 558 1008 q 504 942 511 968 z "},"”":{"ha":475,"x_min":256,"x_max":635,"o":"m 363 907 q 329 903 344 903 q 278 924 296 903 q 267 974 260 944 q 297 1022 274 1001 q 351 1042 321 1042 q 414 960 431 1042 q 359 863 400 900 q 256 826 318 826 l 260 840 q 336 865 310 840 q 363 907 356 881 m 567 907 q 533 903 549 903 q 482 924 500 903 q 471 974 464 944 q 501 1022 478 1001 q 556 1042 525 1042 q 618 960 635 1042 q 563 863 604 900 q 460 826 522 826 l 464 840 q 540 865 514 840 q 567 907 560 881 z "},"€":{"ha":794,"x_min":0,"x_max":0,"o":""}}}
